# xmcd
# 
# Track frame offsets:
#	150
#	15450
#	28977
#	41942
#	55562
#	69395
#	81110
#	95922
#	107307
#	120920
#	131567
#	144892
#	159037
#
# Disc length: 2326 seconds
#
# Revision: 1
# Processed by: cddbd v1.4PL0 Copyright (c) Steve Scherf et al.
# Submitted via: Audio-CD-Archiv 2.10.446
#
DISCID=9b09140d
DTITLE=Jimmie Rodgers - Last Sessions  1933
DYEAR=1900
DGENRE=blues
TTITLE0=Blue Yodel #12
TTITLE1=Dreaming With Tears in my Eyes
TTITLE2=Dreaming With Tears  in my Eyes
TTITLE3=The Cowhands Last Ride
TTITLE4=I'm Free
TTITLE5=Yodeling My Way back Home
TTITLE6=Jimmie Rodger's Last Blue Yodel
TTITLE7=The Yodeling Ranger
TTITLE8=Old Pal of my Heart
TTITLE9=Years Ago
TTITLE10=Somewhere Down Below the Dixon Line
TTITLE11=Old Love Letters
TTITLE12=Mississippi Delta Blues
EXTD=
EXTT0=
EXTT1=
EXTT2=
EXTT3=
EXTT4=
EXTT5=
EXTT6=
EXTT7=
EXTT8=
EXTT9=
EXTT10=
EXTT11=
EXTT12=
PLAYORDER=
